<svg xmlns="http://www.w3.org/2000/svg" xmlns:xlink="http://www.w3.org/1999/xlink" width="195" height="333" viewBox="0 0 195 333">
  <defs>
    <clipPath id="clip-path">
      <rect id="Rectangle_2836" data-name="Rectangle 2836" width="195" height="333" transform="translate(1171 639)" fill="#fff" stroke="#707070" stroke-width="1"/>
    </clipPath>
  </defs>
  <g id="Mask_Group_75" data-name="Mask Group 75" transform="translate(-1171 -639)" clip-path="url(#clip-path)">
    <path id="Path_2" data-name="Path 2" d="M727.817,634.89a32.223,32.223,0,0,1-28.727-17.577L599.717,422.719l-106.883,195.4a32.228,32.228,0,0,1-28.273,16.762h-.236a32.229,32.229,0,0,1-28.261-17.175L298.9,358.032a32.228,32.228,0,0,1,56.994-30.1L465.055,534.593,572.421,338.308a32.227,32.227,0,0,1,28.272-16.762c.154,0,.306,0,.46,0A32.23,32.23,0,0,1,629.4,339.116L756.493,588a32.239,32.239,0,0,1-28.676,46.891Z" transform="translate(875.836 328.254)" fill="#43afe9" opacity="0.1"/>
  </g>
</svg>
