<svg xmlns="http://www.w3.org/2000/svg" width="98.895" height="76.184" viewBox="0 0 98.895 76.184">
  <g id="undraw_Devices_re_dxae" transform="translate(-55.06 0.25)">
    <path id="Path_337" data-name="Path 337" d="M544.369,265.834V305.8H465V265.834Z" transform="translate(-394.634 -261.721)" fill="#fff" stroke="#3a9cd8" stroke-width="1"/>
    <path id="Path_338" data-name="Path 338" d="M527.677,293.735h-68.2v-.278H527.4V246.391a2.091,2.091,0,0,0-2.089-2.089H441.9a2.091,2.091,0,0,0-2.089,2.089v48.082h-.279V246.391a2.37,2.37,0,0,1,2.367-2.367H525.31a2.37,2.37,0,0,1,2.367,2.367Z" transform="translate(-373.971 -244.024)" fill="#3a9cd8" stroke="#3a9cd8" stroke-width="0.5"/>
    <path id="Union_3" data-name="Union 3" d="M168.123-1092.5H106.134a6.483,6.483,0,0,1-6.488-6.462v-2.31H187.79v2.31a6.469,6.469,0,0,1-6.462,6.462Zm13.206-.278a6.19,6.19,0,0,0,6.183-6.184v-2.032H99.926v2.032a6.2,6.2,0,0,0,6.208,6.184h75.194Z" transform="translate(-34.085 1150.704)" fill="#3a9cd8" stroke="#3a9cd8" stroke-width="0.5"/>
    <path id="Path_340" data-name="Path 340" d="M608.591,565.094c-3.442-3.3-5.706-7.616-6.433-13.646H576.793a18.791,18.791,0,0,1-6.566,13.631l-.429.015c4.187-3.794,6.493-8.056,6.722-13.791l.005-.134h25.879l.014.123c.715,6.132,3.026,10.472,6.552,13.779Z" transform="translate(-479.669 -493.242)" fill="#3a9cd8" stroke="#3a9cd8" stroke-width="0.5"/>
    <g id="Group_63" data-name="Group 63" transform="translate(55.31 34.847)">
      <path id="Path_355" data-name="Path 355" d="M247.88,480.283H234.946a3.677,3.677,0,0,1-3.673-3.673V443.118a3.677,3.677,0,0,1,3.673-3.673H247.88a3.677,3.677,0,0,1,3.673,3.673v5.994a.363.363,0,0,1,.223.334v3.9a.363.363,0,0,1-.223.334v22.93A3.677,3.677,0,0,1,247.88,480.283Z" transform="translate(-231.273 -439.446)" fill="#fff" stroke="#3a9cd8" stroke-width="0.5"/>
      <path id="Path_344" data-name="Path 344" d="M247.88,480.283H234.946a3.677,3.677,0,0,1-3.673-3.673V443.118a3.677,3.677,0,0,1,3.673-3.673H247.88a3.677,3.677,0,0,1,3.673,3.673v5.994a.363.363,0,0,1,.223.334v3.9a.363.363,0,0,1-.223.334v22.93A3.677,3.677,0,0,1,247.88,480.283Zm-12.934-40.559a3.4,3.4,0,0,0-3.394,3.394V476.61A3.4,3.4,0,0,0,234.946,480H247.88a3.4,3.4,0,0,0,3.394-3.394V453.43h.139a.084.084,0,0,0,.084-.084v-3.9a.084.084,0,0,0-.084-.084h-.139v-6.244a3.4,3.4,0,0,0-3.394-3.394Z" transform="translate(-231.273 -439.446)" fill="#3a9cd8" stroke="#3a9cd8" stroke-width="0.5"/>
      <g id="Path_345" data-name="Path 345" transform="translate(-236.067 -444)" fill="#fff">
        <path d="M 252.8159484863281 483.5283508300781 L 239.8195495605469 483.5283508300781 C 238.5024261474609 483.5283508300781 237.4308624267578 482.456787109375 237.4308624267578 481.1396179199219 L 237.4308624267578 447.6966552734375 C 237.4308624267578 446.3795166015625 238.5024261474609 445.3079833984375 239.8195495605469 445.3079833984375 L 241.0701141357422 445.3079833984375 C 241.0147094726562 445.6753540039062 241.0969848632812 446.0543212890625 241.3092956542969 446.3702392578125 C 241.5890960693359 446.7865295410156 242.0555725097656 447.0350646972656 242.5571441650391 447.0350646972656 L 249.9669189453125 447.0350646972656 C 250.4685211181641 447.0350646972656 250.9350280761719 446.7864990234375 251.2148132324219 446.3701782226562 C 251.4271087646484 446.0542907714844 251.5093688964844 445.6753234863281 251.4539642333984 445.3079833984375 L 252.8159484863281 445.3079833984375 C 254.133056640625 445.3080444335938 255.2046203613281 446.3795776367188 255.2046356201172 447.6966552734375 L 255.2046356201172 481.1396179199219 C 255.2046356201172 482.456787109375 254.1330718994141 483.5283508300781 252.8159484863281 483.5283508300781 Z" stroke="none"/>
        <path d="M 239.8195495605469 445.5579833984375 C 238.6402740478516 445.5579833984375 237.6808624267578 446.5173950195312 237.6808624267578 447.6966552734375 L 237.6808624267578 481.1396179199219 C 237.6808624267578 482.3189086914062 238.6402740478516 483.2783508300781 239.8195495605469 483.2783508300781 L 252.8159484863281 483.2783508300781 C 253.9952239990234 483.2783508300781 254.9546356201172 482.3189086914062 254.9546356201172 481.1396179199219 L 254.9546356201172 447.6966552734375 C 254.9546203613281 446.5174255371094 253.9951934814453 445.5580444335938 252.8159484863281 445.5579833984375 L 251.7205963134766 445.5579833984375 C 251.7156219482422 445.8923645019531 251.6147918701172 446.2232360839844 251.4223175048828 446.5096435546875 C 251.0959930419922 446.9951782226562 250.5519256591797 447.2850646972656 249.9669189453125 447.2850646972656 L 242.5571441650391 447.2850646972656 C 241.9721832275391 447.2850646972656 241.4281463623047 446.9952087402344 241.101806640625 446.5097045898438 C 240.9093017578125 446.2232360839844 240.8084564208984 445.8923950195312 240.8034820556641 445.5579833984375 L 239.8195495605469 445.5579833984375 M 239.8195495605469 445.0579833984375 L 241.3964538574219 445.0579833984375 C 241.2388000488281 445.4445190429688 241.2838745117188 445.8842163085938 241.5167999267578 446.2308044433594 C 241.7496643066406 446.5772705078125 242.1397705078125 446.7850646972656 242.5571441650391 446.7850646972656 L 249.9669189453125 446.7850646972656 C 250.3843994140625 446.7850646972656 250.7744750976562 446.5772094726562 251.00732421875 446.2307434082031 C 251.2402038574219 445.8842163085938 251.2852935791016 445.444580078125 251.1276397705078 445.0579833984375 L 252.8159484863281 445.0579833984375 C 254.2732696533203 445.0580444335938 255.4546203613281 446.2393798828125 255.4546356201172 447.6966552734375 L 255.4546356201172 481.1396179199219 C 255.4546356201172 482.5969543457031 254.2732696533203 483.7783508300781 252.8159484863281 483.7783508300781 L 239.8195495605469 483.7783508300781 C 238.3622436523438 483.7783508300781 237.1808624267578 482.5969543457031 237.1808624267578 481.1396179199219 L 237.1808624267578 447.6966552734375 C 237.1808624267578 446.2393188476562 238.3622436523438 445.0579833984375 239.8195495605469 445.0579833984375 Z" stroke="none" fill="#3a9cd8"/>
      </g>
    </g>
    <rect id="Rectangle_17" data-name="Rectangle 17" width="44.955" height="3.971" rx="1.986" transform="translate(87.154 71.713)" fill="#3a9cd8"/>
  </g>
</svg>
