<svg xmlns="http://www.w3.org/2000/svg" width="64.413" height="64.427" viewBox="0 0 64.413 64.427">
  <g id="wallet" transform="translate(0.497 0.513)">
    <g id="Group_73" data-name="Group 73" transform="translate(0.003 0)">
      <g id="Group_72" data-name="Group 72" transform="translate(0 0)">
        <path id="Path_405" data-name="Path 405" d="M60.534,31.973V23.06a5.753,5.753,0,0,0-5.306-5.718L46.951,2.885A5.7,5.7,0,0,0,39.125.777L10.751,17.3H5.768A5.771,5.771,0,0,0,0,23.06V57.649a5.771,5.771,0,0,0,5.765,5.765h49a5.771,5.771,0,0,0,5.765-5.765V48.737a4.317,4.317,0,0,0,2.882-4.058V36.031A4.317,4.317,0,0,0,60.534,31.973ZM51.878,17.3H39.317l9.421-5.485ZM47.306,9.309,33.588,17.3H27.9L45.883,6.824Zm-6.73-6.041a2.787,2.787,0,0,1,2.141-.288,2.826,2.826,0,0,1,1.731,1.338l0,.005L22.17,17.3H16.48ZM57.651,57.649a2.886,2.886,0,0,1-2.882,2.882h-49a2.886,2.886,0,0,1-2.882-2.882V23.06a2.886,2.886,0,0,1,2.882-2.882h49a2.886,2.886,0,0,1,2.882,2.882v8.647H49A8.647,8.647,0,0,0,49,49h8.647Zm2.882-12.971a1.442,1.442,0,0,1-1.441,1.441H49a5.765,5.765,0,1,1,0-11.53H59.093a1.442,1.442,0,0,1,1.441,1.441Z" transform="translate(-0.003 0)" fill="#3a9cd8" stroke="#fff" stroke-width="1"/>
        <path id="Path_406" data-name="Path 406" d="M344.219,277.341a2.882,2.882,0,1,0,2.882,2.882A2.886,2.886,0,0,0,344.219,277.341Z" transform="translate(-295.218 -239.869)" fill="#3a9cd8" stroke="#fff" stroke-width="1"/>
      </g>
    </g>
  </g>
</svg>
