<svg xmlns="http://www.w3.org/2000/svg" width="65.222" height="74.13" viewBox="0 0 65.222 74.13">
  <g id="Group_71" data-name="Group 71" transform="translate(-144.75 -1657.048)">
    <g id="budget" transform="translate(114.03 1657.298)">
      <g id="Group_70" data-name="Group 70" transform="translate(30.97 0)">
        <path id="Path_393" data-name="Path 393" d="M121.245,151.447h29.362a1.079,1.079,0,1,0,0-2.157H121.245a1.079,1.079,0,1,0,0,2.157Z" transform="translate(-107.339 -127.821)" fill="#3a9cd8" stroke="#fff" stroke-width="0.5"/>
        <path id="Path_394" data-name="Path 394" d="M121.245,198.675h29.362a1.079,1.079,0,1,0,0-2.157H121.245a1.079,1.079,0,1,0,0,2.157Z" transform="translate(-107.339 -168.257)" fill="#3a9cd8" stroke="#fff" stroke-width="0.5"/>
        <path id="Path_395" data-name="Path 395" d="M121.245,245.9h16.2a1.079,1.079,0,0,0,0-2.157h-16.2a1.079,1.079,0,1,0,0,2.157Z" transform="translate(-107.339 -208.693)" fill="#3a9cd8" stroke="#fff" stroke-width="0.5"/>
        <path id="Path_396" data-name="Path 396" d="M133.108,292.054a1.078,1.078,0,0,0-1.079-1.079H121.245a1.079,1.079,0,1,0,0,2.157h10.784A1.079,1.079,0,0,0,133.108,292.054Z" transform="translate(-107.339 -249.13)" fill="#3a9cd8" stroke="#fff" stroke-width="0.5"/>
        <path id="Path_398" data-name="Path 398" d="M92.839,49.055A17.456,17.456,0,0,0,91.268,45.3a3.836,3.836,0,0,0-.626-4.62l-1.455-1.455a3.863,3.863,0,0,0-1.043-.744V11.523a5.168,5.168,0,0,0-5.162-5.162H65.044V5.488a5.488,5.488,0,1,0-10.975,0v.873H36.132a5.168,5.168,0,0,0-5.162,5.162V68.468a5.168,5.168,0,0,0,5.162,5.162H82.981a5.2,5.2,0,0,0,5.083-4.272,3.856,3.856,0,0,0,1.122-.779l1.455-1.455a3.836,3.836,0,0,0,.626-4.62,17.46,17.46,0,0,0,1.571-3.756,3.341,3.341,0,0,0,2.853-3.3v-3.09a3.341,3.341,0,0,0-2.853-3.3ZM54.3,8.518A1.925,1.925,0,0,0,56.226,6.6V5.488a3.331,3.331,0,0,1,6.661,0V6.6A1.925,1.925,0,0,0,64.81,8.518h5.544v4.343a.384.384,0,0,1-.384.384H49.143a.384.384,0,0,1-.384-.384V8.518ZM33.127,68.468V11.523a3.008,3.008,0,0,1,3-3h1.279V63.661a3.236,3.236,0,0,0,3.233,3.233h15.88a1.079,1.079,0,0,0,0-2.157H40.644a1.076,1.076,0,0,1-1.075-1.075V8.518H46.6v4.343A2.544,2.544,0,0,0,49.143,15.4H69.97a2.544,2.544,0,0,0,2.541-2.541V8.518h7.034V32.212a1.079,1.079,0,1,0,2.157,0V8.518h1.279a3.008,3.008,0,0,1,3,3v26.6a3.834,3.834,0,0,0-1.42.472,17.456,17.456,0,0,0-3.756-1.571,3.341,3.341,0,0,0-3.3-2.853h-3.09a3.341,3.341,0,0,0-3.3,2.853A17.453,17.453,0,0,0,67.362,38.6a3.836,3.836,0,0,0-4.62.626l-1.455,1.455a3.836,3.836,0,0,0-.626,4.62,17.455,17.455,0,0,0-1.571,3.756,3.341,3.341,0,0,0-2.853,3.3v3.09a3.341,3.341,0,0,0,2.853,3.3A17.448,17.448,0,0,0,60.66,62.5a3.836,3.836,0,0,0,.626,4.62l1.455,1.455a3.835,3.835,0,0,0,4.62.626,17.462,17.462,0,0,0,3.756,1.572,3.294,3.294,0,0,0,.184.7H36.132a3.008,3.008,0,0,1-3-3Zm49.854,3H80.626a3.3,3.3,0,0,0,.184-.7,17.454,17.454,0,0,0,3.756-1.571,3.841,3.841,0,0,0,1.176.435,3.023,3.023,0,0,1-2.761,1.832ZM93.535,55.447a1.18,1.18,0,0,1-1.179,1.179,1.54,1.54,0,0,0-1.489,1.156,15.3,15.3,0,0,1-1.646,3.952,1.55,1.55,0,0,0,.076,1.688,1.686,1.686,0,0,1-.182,2.177l-1.455,1.455a1.687,1.687,0,0,1-2.177.182A1.551,1.551,0,0,0,83.8,67.16,15.3,15.3,0,0,1,79.843,68.8a1.541,1.541,0,0,0-1.156,1.489,1.18,1.18,0,0,1-1.179,1.179h-3.09a1.18,1.18,0,0,1-1.179-1.179A1.541,1.541,0,0,0,72.084,68.8a15.3,15.3,0,0,1-3.953-1.646,1.551,1.551,0,0,0-1.688.076,1.686,1.686,0,0,1-2.177-.182L62.811,65.6a1.686,1.686,0,0,1-.182-2.177,1.55,1.55,0,0,0,.076-1.688,15.3,15.3,0,0,1-1.645-3.952,1.54,1.54,0,0,0-1.489-1.156,1.18,1.18,0,0,1-1.179-1.179v-3.09a1.18,1.18,0,0,1,1.179-1.179,1.54,1.54,0,0,0,1.489-1.156,15.3,15.3,0,0,1,1.645-3.952,1.55,1.55,0,0,0-.076-1.688,1.686,1.686,0,0,1,.182-2.177l1.455-1.455a1.686,1.686,0,0,1,2.178-.181,1.551,1.551,0,0,0,1.688.075A15.29,15.29,0,0,1,72.084,39a1.541,1.541,0,0,0,1.156-1.489,1.18,1.18,0,0,1,1.179-1.179h3.09a1.18,1.18,0,0,1,1.179,1.179A1.541,1.541,0,0,0,79.843,39,15.3,15.3,0,0,1,83.8,40.644a1.551,1.551,0,0,0,1.688-.076,1.686,1.686,0,0,1,1.3-.283q.05.013.1.022a1.69,1.69,0,0,1,.774.443L89.116,42.2a1.686,1.686,0,0,1,.182,2.177,1.55,1.55,0,0,0-.076,1.688,15.3,15.3,0,0,1,1.645,3.952,1.54,1.54,0,0,0,1.489,1.156,1.18,1.18,0,0,1,1.179,1.179v3.09Z" transform="translate(-30.97 0)" fill="#3a9cd8" stroke="#fff" stroke-width="0.5"/>
        <path id="Path_399" data-name="Path 399" d="M268.23,284.97a12.873,12.873,0,0,0-12.568,9.911,1.079,1.079,0,0,0,2.1.5,10.765,10.765,0,1,1-.093,4.586,1.079,1.079,0,1,0-2.117.414,12.922,12.922,0,1,0,12.68-15.412Z" transform="translate(-223.236 -243.989)" fill="#3a9cd8" stroke="#fff" stroke-width="0.5"/>
      </g>
      <path id="Path_401" data-name="Path 401" d="M47.708,7.539v5.376l.741,1.256H69.909l1.611-1.256V7.539h-6.9L63.8,6.461V4.36L62.718,2.326l-1.975-1.16H58.827l-1.84.765-1.2,1.139-.6,1.291V6.806l-1.347.733Z" fill="#3a9cd8"/>
      <g id="Group_69" data-name="Group 69" transform="translate(58.435 4.29)">
        <g id="Group_68" data-name="Group 68" transform="translate(0)">
          <g id="Group_67" data-name="Group 67">
            <g id="Group_66" data-name="Group 66">
              <g id="Group_65" data-name="Group 65">
                <circle id="Ellipse_20" data-name="Ellipse 20" cx="1.121" cy="1.121" r="1.121" fill="#fff"/>
              </g>
            </g>
          </g>
        </g>
      </g>
    </g>
    <circle id="Ellipse_21" data-name="Ellipse 21" cx="13" cy="13" r="13" transform="translate(177 1698)" fill="#3a9cd8"/>
    <path id="Path_400" data-name="Path 400" d="M1.248-10.064a.591.591,0,0,1-.472-.176.6.6,0,0,1-.152-.4.566.566,0,0,1,.152-.392.606.606,0,0,1,.472-.168h5.92a.591.591,0,0,1,.472.176.6.6,0,0,1,.152.4.566.566,0,0,1-.152.392.606.606,0,0,1-.472.168H6.3q-.56,0-.944-.016a4.625,4.625,0,0,1-.464-.032v.064a2.023,2.023,0,0,1,.656.48,2.127,2.127,0,0,1,.48.848H7.168a.591.591,0,0,1,.472.176.6.6,0,0,1,.152.4.566.566,0,0,1-.152.392.606.606,0,0,1-.472.168H6.112a2.982,2.982,0,0,1-.4,1.256,3,3,0,0,1-.776.856,3.457,3.457,0,0,1-1.008.512,5.062,5.062,0,0,1-1.08.224L6.464-1.264a.8.8,0,0,1,.256.576.727.727,0,0,1-.192.512A.683.683,0,0,1,6,.032a1.081,1.081,0,0,1-.344-.056.911.911,0,0,1-.344-.232L1.056-4.416A1.08,1.08,0,0,1,.8-4.744a.792.792,0,0,1-.08-.344.7.7,0,0,1,.192-.5.657.657,0,0,1,.5-.2h.208A5.534,5.534,0,0,0,2.6-5.88a2.862,2.862,0,0,0,.88-.3,2.227,2.227,0,0,0,.664-.552A1.749,1.749,0,0,0,4.5-7.584H1.248A.591.591,0,0,1,.776-7.76a.6.6,0,0,1-.152-.4.566.566,0,0,1,.152-.392.606.606,0,0,1,.472-.168H4.416Q4-10.064,1.968-10.064Z" transform="translate(185.376 1716.784)" fill="#fff"/>
  </g>
</svg>
