<svg xmlns="http://www.w3.org/2000/svg" width="102.506" height="53.196" viewBox="0 0 102.506 53.196">
  <g id="Group_32" data-name="Group 32" transform="translate(-286.247 -302.9)">
    <rect id="Rectangle_13" data-name="Rectangle 13" width="37.067" height="17.553" transform="translate(302.267 318.869)" fill="#3a9cd8"/>
    <rect id="Rectangle_14" data-name="Rectangle 14" width="34.845" height="17.553" transform="translate(337.889 318.869)" fill="#3a9cd8"/>
    <path id="Path_313" data-name="Path 313" d="M377.2,320.59l-8.918-.481c0,.582-.005,1.094-.009,1.576l-8.62-.462c0,.031,0,.056,0,.087l-9.506-.511c.009-.227.017-.359.017-.359l-1.4.048v-1.029H326.243v1.029l-1.4-.048s.008.132.017.359l-9.506.511c0-.031,0-.056,0-.087l-8.621.462c0-.482-.007-.994-.008-1.576l-8.918.481a31.728,31.728,0,0,1,0,3.213c-.091,1.654,2.2,1.654,2.2,1.654h4.5c1.129,0,1.675-.367,1.951-1.094-.009.184-.014.367-.024.553-.094,1.654,2.2,1.654,2.2,1.654h4.5c1.138,0,1.686-.371,1.961-1.111.248,1.549,2.532,1.568,2.532,1.568H322.9c1.181,0,1.819-.342,2.173-1.017.7,1.328,2.9,1.347,2.9,1.347h6.395c2.15,0,2.9-.472,3.131-1.6.232,1.129.98,1.6,3.131,1.6h6.395s2.2-.019,2.9-1.347c.354.675.992,1.017,2.173,1.017h5.267s2.284-.019,2.532-1.568c.275.74.823,1.111,1.961,1.111h4.5s2.3,0,2.2-1.654c-.01-.186-.015-.369-.024-.553.276.727.822,1.094,1.951,1.094h4.5s2.3,0,2.2-1.654A31.387,31.387,0,0,1,377.2,320.59Z" fill="#fff"/>
    <path id="Path_314" data-name="Path 314" d="M361.871,306.441c-5.677-3.328-12.69-3.619-16.639-1.175a12.635,12.635,0,0,1-15.464,0c-3.949-2.444-10.962-2.153-16.639,1.175-4.136,2.426-21.172,10.272-26.132,11.059,0,0,11.745,7.438,23.1,5.873s19.576-2.918,27.4-2.83c7.829-.088,16.051,1.264,27.4,2.83S388,317.5,388,317.5C383.043,316.713,366.007,308.867,361.871,306.441Z" fill="#fff" stroke="#3a9cd8" stroke-linecap="round" stroke-linejoin="round" stroke-width="1.5"/>
    <path id="Path_315" data-name="Path 315" d="M350.16,333.029a56.524,56.524,0,0,1-25.32,0c-14.074-3.769-19.7-8.677-37.843-15.529,0,0,18.272,37.846,50.5,37.846S388,317.5,388,317.5C369.864,324.352,364.234,329.26,350.16,333.029Z" fill="#fff" stroke="#3a9cd8" stroke-linecap="round" stroke-linejoin="round" stroke-width="1.5"/>
  </g>
</svg>
