<svg xmlns="http://www.w3.org/2000/svg" width="61.368" height="65.716" viewBox="0 0 61.368 65.716">
  <g id="Safe" transform="translate(-1.75 -1.749)">
    <path id="Path_383" data-name="Path 383" d="M61.368,51.511a3.712,3.712,0,0,0-3.3-.6L43.151,55.3H34.89l-5.869-3.261H40.042a1.087,1.087,0,0,0,1.087-1.087V47.7a1.123,1.123,0,0,0-.315-.772L38.64,44.75a1.1,1.1,0,0,0-.554-.293L21.782,41.2a1.473,1.473,0,0,0-.217-.022H15.043a1.018,1.018,0,0,0-.4.076L10.7,42.826V41.174A1.087,1.087,0,0,0,9.782,40.1L3.261,39.011a1.129,1.129,0,0,0-.88.25,1.1,1.1,0,0,0-.38.826V61.825a1.087,1.087,0,0,0,1.087,1.087.934.934,0,0,0,.174-.011l6.522-1.087a1.087,1.087,0,0,0,.913-1.076V59.652h3.087l12.869,4.293A1.288,1.288,0,0,0,27,64H43.3a1,1,0,0,0,.359-.065l16.706-5.891a3.749,3.749,0,0,0,2.5-3.533,3.707,3.707,0,0,0-1.5-3ZM59.65,55.989,43.118,61.825H27.173L14.3,57.532a1.288,1.288,0,0,0-.348-.054H10.7v-12.3l4.554-1.826h6.206l15.88,3.174,1.62,1.62v1.728H24.825a1.087,1.087,0,0,0-.533,2.033l9.782,5.435a1.029,1.029,0,0,0,.533.141h8.7a.938.938,0,0,0,.3-.043L58.683,53a1.536,1.536,0,0,1,1.38.25,1.572,1.572,0,0,1-.413,2.739Z" transform="translate(0 3.216)" fill="#3a9cd8" stroke="#fff" stroke-linecap="round" stroke-linejoin="round" stroke-width="0.5"/>
    <path id="Path_384" data-name="Path 384" d="M33.391,43.3c9.589,0,17.391-10.24,17.391-22.825V7.435a1.087,1.087,0,0,0-.806-1.05l-16.3-4.348a1.087,1.087,0,0,0-.561,0l-16.3,4.348A1.087,1.087,0,0,0,16,7.435V20.478C16,33.063,23.8,43.3,33.391,43.3ZM18.174,8.27,33.391,4.212,48.608,8.27V20.478c0,11.388-6.826,20.652-15.217,20.652S18.174,31.865,18.174,20.478Z" transform="translate(1.217 0)" fill="#3a9cd8" stroke="#fff" stroke-linecap="round" stroke-linejoin="round" stroke-width="0.5"/>
    <path id="Path_385" data-name="Path 385" d="M26.638,21.46v2.183A1.455,1.455,0,0,0,28.094,25.1H31a1.455,1.455,0,0,0,1.455-1.455V21.46h2.183A1.455,1.455,0,0,0,36.1,20V17.094a1.455,1.455,0,0,0-1.455-1.455H32.46V13.455A1.455,1.455,0,0,0,31,12H28.094a1.455,1.455,0,0,0-1.455,1.455v2.183H24.455A1.455,1.455,0,0,0,23,17.094V20a1.455,1.455,0,0,0,1.455,1.455Z" transform="translate(5.059 4.102)" fill="#3a9cd8"/>
    <path id="Path_386" data-name="Path 386" d="M52.174,8.522h2.174V6.348h2.174V4.174H54.348V2H52.174V4.174H50V6.348h2.174Z" transform="translate(4.172 0)" fill="#3a9cd8"/>
    <path id="Path_388" data-name="Path 388" d="M48.174,33v2.174H46v2.174h2.174v2.174h2.174V37.348h2.174V35.174H50.348V33Z" transform="translate(3.825 2.695)" fill="#3a9cd8"/>
    <path id="Path_390" data-name="Path 390" d="M10.174,8.522h2.174V6.348h2.174V4.174H12.348V2H10.174V4.174H8V6.348h2.174Z" transform="translate(0.522 0)" fill="#3a9cd8"/>
    <path id="Path_392" data-name="Path 392" d="M14.174,33v2.174H12v2.174h2.174v2.174h2.174V37.348h2.174V35.174H16.348V33Z" transform="translate(0.869 2.695)" fill="#3a9cd8"/>
  </g>
</svg>
