<svg xmlns="http://www.w3.org/2000/svg" width="78.894" height="76.304" viewBox="0 0 78.894 76.304">
  <g id="guarantee" transform="translate(0.3 0.3)">
    <path id="Path_356" data-name="Path 356" d="M121.586,73.245H72V13.22A5.22,5.22,0,0,1,77.22,8h54.806a5.22,5.22,0,0,0-5.22,5.22V68.025A5.22,5.22,0,0,1,121.586,73.245Zm0,0" transform="translate(-60.256 -6.695)" fill="#fff"/>
    <path id="Path_358" data-name="Path 358" d="M418.439,15.829H408V13.22a5.22,5.22,0,1,1,10.439,0Zm0,0" transform="translate(-341.45 -6.695)" fill="#fff"/>
    <path id="Path_359" data-name="Path 359" d="M8,360v2.61a5.22,5.22,0,0,0,5.22,5.22H68.025a5.22,5.22,0,0,1-5.22-5.22V360Zm0,0" transform="translate(-6.695 -301.279)" fill="#fff"/>
    <path id="Path_360" data-name="Path 360" d="M296.2,336v19.573l5.22-3.915,5.22,3.915V336Zm0,0" transform="translate(-247.885 -281.194)" fill="#3a9cd8"/>
    <path id="Path_362" data-name="Path 362" d="M294.052,261.33a2.662,2.662,0,0,0-3.543-3.55,2.657,2.657,0,0,0-5.009,0,2.661,2.661,0,0,0-3.541,3.55,2.664,2.664,0,0,0,0,5.018,2.661,2.661,0,0,0,3.541,3.55,2.657,2.657,0,0,0,5.009,0,2.662,2.662,0,0,0,3.543-3.55,2.666,2.666,0,0,0,0-5.018Zm0,0" transform="translate(-234.489 -214.253)" fill="#3a9cd8"/>
    <g id="Group_64" data-name="Group 64" transform="translate(19.573 10.439)">
      <path id="Path_364" data-name="Path 364" d="M264,64h5.22v2.61H264Zm0,0" transform="translate(-240.512 -64)" fill="#5eb3d1"/>
      <path id="Path_365" data-name="Path 365" d="M184,64h10.439v2.61H184Zm0,0" transform="translate(-173.561 -64)" fill="#5eb3d1"/>
      <path id="Path_366" data-name="Path 366" d="M160,104h26.1v2.61H160Zm0,0" transform="translate(-153.475 -97.476)" fill="#5eb3d1"/>
      <path id="Path_367" data-name="Path 367" d="M120,152h6.524v2.61H120Zm0,0" transform="translate(-120 -137.646)" fill="#5eb3d1"/>
      <path id="Path_368" data-name="Path 368" d="M120,192h14.354v2.61H120Zm0,0" transform="translate(-120 -171.122)" fill="#5eb3d1"/>
      <path id="Path_369" data-name="Path 369" d="M176,152h30.013v2.61H176Zm0,0" transform="translate(-166.866 -137.646)" fill="#5eb3d1"/>
      <path id="Path_370" data-name="Path 370" d="M224,192h22.183v2.61H224Zm0,0" transform="translate(-207.036 -171.122)" fill="#5eb3d1"/>
      <path id="Path_371" data-name="Path 371" d="M120,232h26.1v2.61H120Zm0,0" transform="translate(-120 -204.597)" fill="#5eb3d1"/>
      <path id="Path_372" data-name="Path 372" d="M120,272h22.183v2.61H120Zm0,0" transform="translate(-120 -238.073)" fill="#5eb3d1"/>
    </g>
    <path id="Path_373" data-name="Path 373" d="M71.769,0H16.964a6.532,6.532,0,0,0-6.524,6.524V57.416H1.3A1.3,1.3,0,0,0,0,58.72v2.61a6.532,6.532,0,0,0,6.524,6.524H47.008v6.524A1.3,1.3,0,0,0,49.1,75.423L53.532,72.1l4.437,3.327a1.3,1.3,0,0,0,.783.261,1.285,1.285,0,0,0,1.3-1.3V67.855H61.33a6.532,6.532,0,0,0,6.524-6.524V10.439h9.134a1.3,1.3,0,0,0,1.3-1.3V6.524A6.532,6.532,0,0,0,71.769,0ZM47.008,65.245H6.524A3.915,3.915,0,0,1,2.61,61.33v-1.3h44.4Zm10.439,6.524-3.132-2.349a1.3,1.3,0,0,0-1.566,0l-3.132,2.349V57.2a3.852,3.852,0,0,0,.757-.015,3.976,3.976,0,0,0,6.284,0,3.876,3.876,0,0,0,.783.015Zm1.678-20.9a1.3,1.3,0,0,0-.741,1.79,1.356,1.356,0,0,1-1.8,1.811,1.3,1.3,0,0,0-1.792.741,1.352,1.352,0,0,1-2.549,0,1.3,1.3,0,0,0-1.792-.741,1.356,1.356,0,0,1-1.8-1.811,1.306,1.306,0,0,0-.74-1.79,1.357,1.357,0,0,1,0-2.558,1.306,1.306,0,0,0,.74-1.789,1.356,1.356,0,0,1,1.8-1.813,1.3,1.3,0,0,0,1.792-.741,1.351,1.351,0,0,1,2.549,0,1.3,1.3,0,0,0,1.792.741,1.356,1.356,0,0,1,1.8,1.811,1.3,1.3,0,0,0,.741,1.79,1.358,1.358,0,0,1,0,2.558ZM66.449,2.773c-.074.1-.14.215-.207.325a6.533,6.533,0,0,0-.376.691c-.059.131-.113.251-.164.378a6.622,6.622,0,0,0-.243.783c-.03.122-.068.239-.091.363a6.5,6.5,0,0,0-.123,1.211V61.33A3.849,3.849,0,0,1,60.057,65V55.928a3.914,3.914,0,0,0,1.044-3.2,3.986,3.986,0,0,0,0-6.29,3.98,3.98,0,0,0-4.437-4.449,3.976,3.976,0,0,0-6.284,0,3.98,3.98,0,0,0-4.437,4.449,3.985,3.985,0,0,0,0,6.29,3.923,3.923,0,0,0,1.072,3.235v1.45H13.049V6.524A3.915,3.915,0,0,1,16.964,2.61H66.55C66.514,2.661,66.486,2.719,66.449,2.773Zm9.235,5.056H67.855v-1.3a3.915,3.915,0,1,1,7.829,0Zm0,0" fill="#3a9cd8" stroke="#fff" stroke-width="0.6"/>
    <path id="Path_374" data-name="Path 374" d="M264,64h5.22v2.61H264Zm0,0" transform="translate(-220.938 -53.561)" fill="#3a9cd8"/>
    <path id="Path_375" data-name="Path 375" d="M184,64h10.439v2.61H184Zm0,0" transform="translate(-153.987 -53.561)" fill="#3a9cd8"/>
    <path id="Path_376" data-name="Path 376" d="M160,104h26.1v2.61H160Zm0,0" transform="translate(-133.902 -87.036)" fill="#3a9cd8"/>
    <path id="Path_377" data-name="Path 377" d="M120,152h6.524v2.61H120Zm0,0" transform="translate(-100.426 -127.207)" fill="#3a9cd8"/>
    <path id="Path_378" data-name="Path 378" d="M120,192h14.354v2.61H120Zm0,0" transform="translate(-100.426 -160.682)" fill="#3a9cd8"/>
    <path id="Path_379" data-name="Path 379" d="M176,152h30.013v2.61H176Zm0,0" transform="translate(-147.292 -127.207)" fill="#3a9cd8"/>
    <path id="Path_380" data-name="Path 380" d="M224,192h22.183v2.61H224Zm0,0" transform="translate(-187.463 -160.682)" fill="#3a9cd8"/>
    <path id="Path_381" data-name="Path 381" d="M120,232h26.1v2.61H120Zm0,0" transform="translate(-100.426 -194.158)" fill="#3a9cd8"/>
    <path id="Path_382" data-name="Path 382" d="M120,272h22.183v2.61H120Zm0,0" transform="translate(-100.426 -227.633)" fill="#3a9cd8"/>
  </g>
</svg>
