<svg xmlns="http://www.w3.org/2000/svg" width="75.525" height="63.414" viewBox="0 0 75.525 63.414">
  <g id="Outline_48_" transform="translate(0 -40.972)">
    <path id="Path_402" data-name="Path 402" d="M68.5,40.972H7.02A7.029,7.029,0,0,0,0,47.992V86.42a7.029,7.029,0,0,0,7.02,7.02h7.907v10.945L39.477,93.441H68.5a7.029,7.029,0,0,0,7.02-7.02V47.992A7.029,7.029,0,0,0,68.5,40.972Zm4.8,45.448a4.809,4.809,0,0,1-4.8,4.8H39l-21.86,9.747V91.224H7.02a4.809,4.809,0,0,1-4.8-4.8V47.993a4.809,4.809,0,0,1,4.8-4.8H68.5a4.809,4.809,0,0,1,4.8,4.8Z" fill="#3a9cd8"/>
    <path id="Path_403" data-name="Path 403" d="M239.612,109.867a13.988,13.988,0,0,0-2.867-8.528,14.255,14.255,0,0,0-5.786-4.486,6.241,6.241,0,0,0,.819-3.1V88.129l1.789-7.157H223.28a4.069,4.069,0,0,0-4.064,4.064v8.72a6.241,6.241,0,0,0,.819,3.1,14.255,14.255,0,0,0-5.786,4.486,13.988,13.988,0,0,0-2.867,8.528V119.4H208.5v2.217h33.994V119.4h-2.882ZM221.432,89.1h8.129v4.656a4.064,4.064,0,0,1-8.129,0Zm15.962,30.3H234V107.206h-2.217V119.4H219.215V107.206H217V119.4h-3.4v-9.533a11.968,11.968,0,0,1,7.954-11.226,6.264,6.264,0,0,0,7.887,0,11.968,11.968,0,0,1,7.954,11.226Z" transform="translate(-177.684 -34.088)" fill="#3a9cd8"/>
    <path id="Path_404" data-name="Path 404" d="M81.476,155.472H79.259v7.759H71.5v2.217h7.759v7.759h2.217v-7.759h7.759v-2.217H81.476Z" transform="translate(-60.932 -97.577)" fill="#3a9cd8"/>
  </g>
</svg>
