<svg id="call_black_24dp" xmlns="http://www.w3.org/2000/svg" width="21.391" height="21.391" viewBox="0 0 21.391 21.391">
  <path id="Path_2735" data-name="Path 2735" d="M0,0H21.391V21.391H0Z" fill="none"/>
  <path id="Path_2736" data-name="Path 2736" d="M6.155,4.783a10.974,10.974,0,0,0,.4,2.308L5.487,8.16a13.214,13.214,0,0,1-.677-3.378H6.155M14.943,15.5a11.366,11.366,0,0,0,2.317.4v1.328a13.749,13.749,0,0,1-3.387-.668l1.07-1.061M7.011,3H3.891A.894.894,0,0,0,3,3.891,15.15,15.15,0,0,0,18.152,19.043a.894.894,0,0,0,.891-.891V15.041a.894.894,0,0,0-.891-.891,10.167,10.167,0,0,1-3.182-.508.748.748,0,0,0-.276-.045.913.913,0,0,0-.633.258L12.1,15.817A13.5,13.5,0,0,1,6.226,9.943L8.187,7.982a.894.894,0,0,0,.223-.909A10.125,10.125,0,0,1,7.9,3.891.894.894,0,0,0,7.011,3Z" transform="translate(-0.326 -0.326)" fill="#2f77b6"/>
</svg>
