<svg xmlns="http://www.w3.org/2000/svg" xmlns:xlink="http://www.w3.org/1999/xlink" width="109" height="24" viewBox="0 0 109 24">
  <defs>
    <linearGradient id="linear-gradient" x1="0.5" x2="0.5" y2="1" gradientUnits="objectBoundingBox">
      <stop offset="0" stop-color="#56bffa"/>
      <stop offset="0.403" stop-color="#fff"/>
      <stop offset="1" stop-color="#56bffa"/>
    </linearGradient>
  </defs>
  <g id="Group_5276" data-name="Group 5276" transform="translate(0.411)">
    <g id="Group_5272" data-name="Group 5272">
      <rect id="Rectangle_1173" data-name="Rectangle 1173" width="100" height="18" rx="9" transform="translate(8.589 3)" fill="#d4f4fe"/>
      <text id="VAR_Certified" data-name="VAR Certified" transform="translate(24.589 16)" fill="#2b5889" font-size="11" font-family="Poppins-SemiBold, Poppins" font-weight="600"><tspan x="0" y="0">VAR CERTIFIED</tspan></text>
      <g id="Group_5273" data-name="Group 5273">
        <g id="Polygon_18" data-name="Polygon 18" transform="translate(-0.411)" fill="url(#linear-gradient)">
          <path d="M 15.05276107788086 23.26857566833496 C 14.98738098144531 23.26857566833496 14.92331123352051 23.25581550598145 14.86233139038086 23.23063659667969 L 12.57245063781738 22.28517532348633 C 12.38999080657959 22.20984649658203 12.19739055633545 22.17165565490723 12.00000095367432 22.17165565490723 C 11.80261135101318 22.17165565490723 11.61001110076904 22.20984649658203 11.42755126953125 22.28517532348633 L 9.137670516967773 23.23063659667969 C 9.07671070098877 23.25580596923828 9.012631416320801 23.2685661315918 8.947211265563965 23.2685661315918 C 8.783241271972656 23.26857566833496 8.629561424255371 23.1882152557373 8.536121368408203 23.0536060333252 L 7.110530853271484 21.00006675720215 C 6.884150981903076 20.6739559173584 6.544580936431885 20.45412635803223 6.154370784759521 20.38107681274414 L 3.713050842285156 19.92402648925781 C 3.48245096206665 19.88085556030273 3.314851045608521 19.68698692321777 3.305460929870605 19.45255661010742 L 3.204450845718384 16.92978668212891 C 3.188730955123901 16.53741645812988 3.023261070251465 16.17243576049805 2.738520860671997 15.90205574035645 L 0.9173709750175476 14.17273616790771 C 0.7486609816551208 14.01253604888916 0.7124609351158142 13.76015663146973 0.8293309807777405 13.55899620056152 L 2.09679102897644 11.37737655639648 C 2.2934410572052 11.03889656066895 2.349910974502563 10.64323616027832 2.255810976028442 10.26326656341553 L 1.648080945014954 7.809336185455322 C 1.591970920562744 7.582796096801758 1.697890996932983 7.350336074829102 1.905650973320007 7.244026184082031 L 4.12830114364624 6.106696128845215 C 4.479701042175293 5.926876068115234 4.742210865020752 5.621706008911133 4.867470741271973 5.247395992279053 L 5.665390968322754 2.863056182861328 C 5.733730792999268 2.658876180648804 5.924040794372559 2.521696090698242 6.138960838317871 2.521696090698242 C 6.156260967254639 2.521696090698242 6.173830986022949 2.522606134414673 6.191171169281006 2.52440619468689 L 8.654431343078613 2.780056238174438 C 8.705691337585449 2.785376310348511 8.757801055908203 2.788076162338257 8.809310913085938 2.788076162338257 C 9.150660514831543 2.788076162338257 9.485020637512207 2.670066118240356 9.750781059265137 2.455786228179932 L 11.68616104125977 0.8953261971473694 C 11.77603054046631 0.8228561878204346 11.88455104827881 0.7845562100410461 12.00000095367432 0.7845562100410461 C 12.11544132232666 0.7845562100410461 12.22396087646484 0.8228561878204346 12.3138313293457 0.8953261971473694 L 14.24920082092285 2.455786228179932 C 14.51497077941895 2.670066118240356 14.84933090209961 2.788066148757935 15.19070053100586 2.788066148757935 C 15.24220085144043 2.788066148757935 15.29430103302002 2.785376310348511 15.34554100036621 2.780056238174438 L 17.80883026123047 2.52440619468689 C 17.82618141174316 2.522606134414673 17.84374046325684 2.521696090698242 17.86104011535645 2.521696090698242 C 18.07596015930176 2.521696090698242 18.26627159118652 2.658876180648804 18.3346004486084 2.863046169281006 L 19.13253021240234 5.247395992279053 C 19.25779151916504 5.621716022491455 19.52031135559082 5.926886081695557 19.87170028686523 6.106686115264893 L 22.09435081481934 7.244026184082031 C 22.30210113525391 7.350336074829102 22.40802001953125 7.58280611038208 22.35192108154297 7.809346199035645 L 21.74419021606445 10.26326656341553 C 21.65009117126465 10.6432466506958 21.7065601348877 11.03891658782959 21.90321159362793 11.37738609313965 L 23.1706714630127 13.55898666381836 C 23.28755187988281 13.76016616821289 23.25134086608887 14.01254653930664 23.0826301574707 14.1727466583252 L 21.26147079467773 15.90205574035645 C 20.97671127319336 16.17246627807617 20.81125068664551 16.53744697570801 20.79555130004883 16.92979621887207 L 20.69454002380371 19.45257568359375 C 20.68515014648438 19.68698692321777 20.51754188537598 19.88085556030273 20.28695106506348 19.92402648925781 L 17.84563064575195 20.38107681274414 C 17.45543098449707 20.45412635803223 17.1158618927002 20.67394638061523 16.88946151733398 21.00005531311035 L 15.46387100219727 23.05361557006836 C 15.3704309463501 23.18820571899414 15.21675109863281 23.2685661315918 15.05276107788086 23.26857566833496 Z" stroke="none"/>
          <path d="M 11.99999141693115 1.284555435180664 L 11.99999141693115 1.284566879272461 L 10.06461048126221 2.845035552978516 C 9.656856536865234 3.173784255981445 9.125442504882812 3.331516265869141 8.602821350097656 3.277385711669922 L 6.139551162719727 3.021726608276367 L 5.341630935668945 5.40606689453125 C 5.174600601196289 5.905166625976562 4.824590682983398 6.312067031860352 4.356071472167969 6.551795959472656 L 2.133420944213867 7.689146041870117 L 2.741140365600586 10.14306640625 C 2.866611480712891 10.64968585968018 2.79132080078125 11.17723655700684 2.529130935668945 11.62855625152588 L 1.261661529541016 13.81016635894775 L 3.08281135559082 15.53947639465332 C 3.462471008300781 15.89998626708984 3.683090209960938 16.38662719726562 3.704050064086914 16.90977668762207 L 3.805061340332031 19.43256568908691 L 6.246381759643555 19.88961601257324 C 6.766660690307617 19.98701667785645 7.21942138671875 20.28012657165527 7.521261215209961 20.71492576599121 L 8.946861267089844 22.76847648620605 L 11.23672103881836 21.82302665710449 C 11.47999095916748 21.72257614135742 11.73680114746094 21.67164611816406 12.00000095367432 21.67164611816406 C 12.26319122314453 21.67164611816406 12.52000141143799 21.72257614135742 12.76327133178711 21.82302665710449 L 15.05314064025879 22.76848602294922 L 16.47872161865234 20.71493530273438 C 16.78057098388672 20.28012657165527 17.23334121704102 19.98701667785645 17.75362014770508 19.88961601257324 L 20.19493103027344 19.43256568908691 L 20.29595184326172 16.9097957611084 C 20.31689071655273 16.38665580749512 20.53750991821289 15.89999580383301 20.91718101501465 15.53947639465332 L 22.73833084106445 13.81016635894775 L 21.47088050842285 11.62857627868652 C 21.20868110656738 11.17727661132812 21.13338088989258 10.6497163772583 21.25885009765625 10.14307594299316 L 21.86658096313477 7.689136505126953 L 19.64396095275879 6.551816940307617 C 19.1754207611084 6.312076568603516 18.82540130615234 5.905176162719727 18.65837097167969 5.406076431274414 L 17.86045074462891 3.021736145019531 L 15.39727115631104 3.277376174926758 C 15.32897090911865 3.284465789794922 15.25947093963623 3.288066864013672 15.1906909942627 3.288066864013672 C 14.73555088043213 3.288066864013672 14.28974056243896 3.130725860595703 13.93537139892578 2.845026016235352 L 12.00045108795166 1.284585952758789 C 12.00040054321289 1.284576416015625 12.00023078918457 1.284555435180664 11.99999141693115 1.284555435180664 M 11.99999618530273 0.2845592498779297 C 12.22225093841553 0.2845592498779297 12.44450569152832 0.3584003448486328 12.62767124176025 0.5060863494873047 L 14.5630407333374 2.066545486450195 C 14.76858139038086 2.232267379760742 15.031325340271 2.309980392456055 15.29394054412842 2.282726287841797 L 17.75722122192383 2.027076721191406 C 18.22309303283691 1.978717803955078 18.66011047363281 2.26020622253418 18.80875015258789 2.704376220703125 L 19.60668182373047 5.088716506958008 C 19.6896915435791 5.336765289306641 19.86659049987793 5.542427062988281 20.09946060180664 5.661575317382812 L 22.32211112976074 6.798915863037109 C 22.73552131652832 7.010456085205078 22.94889068603516 7.478765487670898 22.83726119995117 7.929536819458008 L 22.22953033447266 10.38346576690674 C 22.1671314239502 10.63542652130127 22.20514106750488 10.90176582336426 22.33554077148438 11.12620639801025 L 23.60300064086914 13.30781650543213 C 23.83572006225586 13.70837593078613 23.76285171508789 14.21633625030518 23.42692184448242 14.53532600402832 L 21.60576057434082 16.2646369934082 C 21.41699028015137 16.44388580322266 21.30556106567383 16.68967628479004 21.29515075683594 16.94978713989258 L 21.19412994384766 19.47257614135742 C 21.17547988891602 19.93849563598633 20.8372802734375 20.32967567443848 20.37895202636719 20.41548538208008 L 17.93764114379883 20.87253570556641 C 17.67916107177734 20.92092514038086 17.45015144348145 21.06917572021484 17.30018997192383 21.28519630432129 L 15.87460136413574 23.33874702453613 C 15.60659122467041 23.72480583190918 15.10591125488281 23.87215614318848 14.67151069641113 23.69279670715332 L 12.38163089752197 22.74733543395996 C 12.13722038269043 22.64641571044922 11.86278057098389 22.64641571044922 11.61836051940918 22.74733543395996 L 9.3284912109375 23.69278526306152 C 8.89408016204834 23.87214660644531 8.393401145935059 23.72480583190918 8.125391006469727 23.33873558044434 L 6.699800491333008 21.28519630432129 C 6.549840927124023 21.06917572021484 6.320831298828125 20.92092514038086 6.062360763549805 20.87253570556641 L 3.621040344238281 20.41548538208008 C 3.162710189819336 20.32967567443848 2.824520111083984 19.93849563598633 2.80586051940918 19.47256660461426 L 2.704851150512695 16.94978713989258 C 2.694431304931641 16.68967628479004 2.583000183105469 16.44388580322266 2.394231796264648 16.2646369934082 L 0.5730705261230469 14.53531646728516 C 0.2371406555175781 14.21633625030518 0.1642818450927734 13.70837593078613 0.3970012664794922 13.30781650543213 L 1.664461135864258 11.12620639801025 C 1.794851303100586 10.90176582336426 1.832870483398438 10.63542652130127 1.770471572875977 10.38346576690674 L 1.162740707397461 7.929536819458008 C 1.051101684570312 7.478765487670898 1.264480590820312 7.010456085205078 1.677881240844727 6.798915863037109 L 3.900541305541992 5.661575317382812 C 4.133401870727539 5.542427062988281 4.310310363769531 5.336765289306641 4.393320083618164 5.088716506958008 L 5.191240310668945 2.704376220703125 C 5.339881896972656 2.260213851928711 5.776920318603516 1.97871208190918 6.242780685424805 2.027076721191406 L 8.706050872802734 2.282726287841797 C 8.968677520751953 2.309986114501953 9.231410980224609 2.232267379760742 9.43695068359375 2.066545486450195 L 11.37232112884521 0.5060863494873047 C 11.55548572540283 0.3584003448486328 11.77774047851562 0.2845592498779297 11.99999618530273 0.2845592498779297 Z" stroke="none" fill="#2b5889"/>
        </g>
        <path id="Path_2763" data-name="Path 2763" d="M6.387,10.558,9.4,14.46l7.222-5.507" transform="translate(0 0.727)" fill="none" stroke="#2f77b6" stroke-linecap="round" stroke-linejoin="round" stroke-width="2"/>
      </g>
    </g>
  </g>
</svg>
