<svg xmlns="http://www.w3.org/2000/svg" width="42" height="42" viewBox="0 0 42 42">
  <g id="Group_4363" data-name="Group 4363" transform="translate(-86 -623)">
    <rect id="Rectangle_2762" data-name="Rectangle 2762" width="42" height="42" rx="21" transform="translate(86 623)" fill="#d6efff"/>
    <path id="phone_1_" data-name="phone (1)" d="M22,16.92v3a2,2,0,0,1-2.18,2,19.79,19.79,0,0,1-8.63-3.07,19.5,19.5,0,0,1-6-6A19.79,19.79,0,0,1,2.12,4.18,2,2,0,0,1,4.11,2h3a2,2,0,0,1,2,1.72,12.84,12.84,0,0,0,.7,2.81,2,2,0,0,1-.45,2.11L8.09,9.91a16,16,0,0,0,6,6l1.27-1.27a2,2,0,0,1,2.11-.45,12.84,12.84,0,0,0,2.81.7A2,2,0,0,1,22,16.92Z" transform="translate(94.888 632)" fill="none" stroke="#3a9cd8" stroke-linecap="round" stroke-linejoin="round" stroke-width="2"/>
  </g>
</svg>
