<svg xmlns="http://www.w3.org/2000/svg" xmlns:xlink="http://www.w3.org/1999/xlink" width="159.744" height="71.968" viewBox="0 0 159.744 71.968">
  <defs>
    <linearGradient id="linear-gradient" x1="0.017" y1="0.5" x2="1" y2="0.5" gradientUnits="objectBoundingBox">
      <stop offset="0" stop-color="#f3fafd"/>
      <stop offset="0.153" stop-color="#e8f6fd"/>
      <stop offset="0.512" stop-color="#fff"/>
      <stop offset="0.867" stop-color="#e8f6fd"/>
      <stop offset="1" stop-color="#f3fafd"/>
    </linearGradient>
  </defs>
  <g id="Group_5646" data-name="Group 5646" transform="translate(-40.351 -297.346)">
    <g id="Group_4" data-name="Group 4" transform="translate(117.203 298.493)">
      <g id="Group_3" data-name="Group 3" transform="translate(0 0)">
        <path id="Path_2" data-name="Path 2" d="M350.559,352.247A4.126,4.126,0,0,1,346.88,350l-12.723-24.915L320.472,350.1a4.126,4.126,0,0,1-3.62,2.146h-.03a4.126,4.126,0,0,1-3.618-2.2L295.642,316.8a4.126,4.126,0,0,1,7.3-3.854l13.976,26.46,13.747-25.131a4.126,4.126,0,0,1,3.62-2.146h.059a4.126,4.126,0,0,1,3.616,2.249l16.273,31.866a4.128,4.128,0,0,1-3.671,6Z" transform="translate(-295.164 -310.746)" fill="#43afe9"/>
        <path id="Path_3" data-name="Path 3" d="M355.335,352.014a3.287,3.287,0,0,1-2.077-.737l-11.421-9.263a3.3,3.3,0,0,1,.123-5.223l13.079-9.622v-9.061h-29.69c-1.16-2.01-2.842-6.6-4.952-6.6H358.34a3.3,3.3,0,0,1,3.3,3.3v14.031A3.3,3.3,0,0,1,360.3,331.5l-10.983,8.08,8.1,6.572a3.3,3.3,0,0,1-2.081,5.865Z" transform="translate(-278.749 -310.251)" fill="#2f77b6"/>
        <circle id="Ellipse_6" data-name="Ellipse 6" cx="4.097" cy="4.097" r="4.097" transform="translate(34.523 25.154)" fill="#2f77b6"/>
      </g>
    </g>
    <g id="Group_26" data-name="Group 26" transform="translate(40.351 297.346)">
      <g id="Group_27" data-name="Group 27" transform="translate(0 0)">
        <g id="noun-human-2428014" transform="translate(6.141)">
          <path id="Path_7" data-name="Path 7" d="M182.859,44.188a8.648,8.648,0,1,1,6.115-2.533A8.65,8.65,0,0,1,182.859,44.188Zm28.05-.842a4.788,4.788,0,0,0-6.064-2.439l-11.631,4.8h0a16.978,16.978,0,0,1-5.8,1.024H178.3a16.978,16.978,0,0,1-5.8-1.024l-11.59-4.78a4.788,4.788,0,0,0-6.064,2.439,4.609,4.609,0,0,0,2.658,6.137l11.208,4.641a4.634,4.634,0,0,1,3.048,4.357V66.86a4.637,4.637,0,0,1-.284,1.626L160.914,90.041a4.779,4.779,0,0,0,2.438,6.063,4.608,4.608,0,0,0,6.136-2.658l9.022-17.394a4.632,4.632,0,0,1,8.7,0L196.2,93.2a4.787,4.787,0,0,0,5.763,3.072,4.6,4.6,0,0,0,2.975-5.991l-10.7-21.831a4.635,4.635,0,0,1-.284-1.625V58.5A4.634,4.634,0,0,1,197,54.141l11.249-4.657a4.608,4.608,0,0,0,2.658-6.137Z" transform="translate(-154.481 -26.892)" fill="#2f77b6"/>
        </g>
        <g id="Group_15" data-name="Group 15" transform="translate(2.379 27.98)">
          <rect id="Rectangle_13" data-name="Rectangle 13" width="64.322" height="23.095" transform="translate(0 0)" fill="url(#linear-gradient)"/>
          <path id="Path_4" data-name="Path 4" d="M349.27,113.355l-.195,2.022s-2.548,1.71-4.031,1.8-1.628-.65-1.561-1.26,0-1.744-.846-1.758-1.614.9-1.716,2.071.005,3.129,1.37,3.694,4.726,0,4.726,0,1.881-.555,2.058.2-1.018,1.286-1.018,1.286a18.286,18.286,0,0,1-5.42,1.115c-2.278-.053-1.06-.972-.986-1.481s-.076-.936-1.289-.921-1.388,1.556-1.3,2.167a3.112,3.112,0,0,0,2.357,2.612,29.572,29.572,0,0,0,5.6-.314s2.275-.48,2.253.314-.216,1.508-1.212,1.629-3.952.987-4.867.726-2.155-1.085-1.967-1.559-1.716-.552-1.706.206a4.471,4.471,0,0,0,1.9,3.383c1.323.717,7.149.978,7.658.362s0,2.793,0,2.793-.016.529-1.018-.292-5.459-.724-6.406.292-.759,3.032,0,3.21,1.543.507,1.832.187-.192-2.246,1.08-1.88,4.216,1.741,5.613,2.367,5.207-1.4,5.207-1.4,2.57-2.31,2.57-.966.455,2.063,1.39,1.88a1.674,1.674,0,0,0,1.109-2.582,3.834,3.834,0,0,0-4.22-1.6c-2.112.44-3.74,1.846-4.1,1.6s-.473-3.888,0-3.608a8.446,8.446,0,0,0,5.515.667c2.643-.626,3.645-1.821,3.975-3.288s-.515-1.953-1.6-1.329-.611,1.62-2.071,1.559-5.439-.129-5.824-.726c.047-.8,0-1.943,0-1.943a14.742,14.742,0,0,0,4.9.768c2.243-.155,3.437-.455,4.586-1.439s.727-3.313.543-3.6-1.724-.875-2.138.354-.338,1.739-1.671,1.614-4.783-.881-4.783-.881l-1.44-.733v-1.17s3.143,1.229,5.515.617,3.038-2.258,2.809-3.376-.451-2.522-1.109-2.594a1.19,1.19,0,0,0-1.39.906c-.083.623.5,1.957-.309,2.112a14.863,14.863,0,0,1-3.39-.424l-2.125-1.174v-2.221Z" transform="translate(-318.556 -113.355)" fill="rgba(58,134,255,0.25)"/>
        </g>
        <rect id="Rectangle_18" data-name="Rectangle 18" width="69.325" height="2.501" rx="1.251" transform="translate(0 26.551)" fill="#43afe9"/>
        <rect id="Rectangle_19" data-name="Rectangle 19" width="69.325" height="2.501" rx="1.251" transform="translate(0 49.421)" fill="#43afe9"/>
      </g>
    </g>
    <text id="Clinic" transform="translate(115.225 364.314)" fill="#2f77b6" font-size="21" font-family="SegoeUI, Segoe UI"><tspan x="0" y="0">CLINIC</tspan></text>
  </g>
</svg>
