<svg id="undraw_mobile_login_re_9ntv_1_" data-name="undraw_mobile_login_re_9ntv (1)" xmlns="http://www.w3.org/2000/svg" width="376.682" height="295.742" viewBox="0 0 376.682 295.742">
  <path id="Path_133" data-name="Path 133" d="M855.356,596.7a112.638,112.638,0,0,1-24.578,19.829c-.208.128-.42.248-.633.373l-14.7-13.015c.154-.143.325-.3.51-.481,10.957-10.4,65.351-83.147,68.975-100.861C884.675,504.019,888.2,561.893,855.356,596.7Z" transform="translate(-512.477 -326.717)" fill="#f0f0f0"/>
  <path id="Path_134" data-name="Path 134" d="M839.155,686.305c-.278.066-.561.128-.845.185l-11.032-9.764c.216-.075.468-.164.756-.264,4.733-1.676,18.831-6.736,32.861-12.5,15.075-6.195,30.078-13.194,33.3-17.678C893.507,647.328,872.187,678.919,839.155,686.305Z" transform="translate(-518.017 -393.983)" fill="#f0f0f0"/>
  <path id="Path_2774" data-name="Path 2774" d="M764.679,257.882h-1.571V214.843a24.91,24.91,0,0,0-24.91-24.91H647.016a24.91,24.91,0,0,0-24.909,24.909V450.955a24.91,24.91,0,0,0,24.909,24.909H738.2a24.909,24.909,0,0,0,24.909-24.909V288.517h1.571Z" transform="translate(-422.004 -180.428)" fill="#3f3d56"/>
  <path id="Path_2775" data-name="Path 2775" d="M763.852,220.716V456.484a18.6,18.6,0,0,1-18.605,18.6H653.626a18.6,18.6,0,0,1-18.6-18.6V220.716a18.6,18.6,0,0,1,18.6-18.6h11.117a8.842,8.842,0,0,0,8.184,12.173h52.236a8.832,8.832,0,0,0,8.185-12.173h11.9A18.6,18.6,0,0,1,763.852,220.716Z" transform="translate(-428.05 -186.129)" fill="#fff"/>
  <path id="Path_2776" data-name="Path 2776" d="M748.081,455.667H667.548a5.327,5.327,0,0,1-5.32-5.32V447.7a5.327,5.327,0,0,1,5.32-5.32h80.533a5.326,5.326,0,0,1,5.32,5.32v2.648A5.326,5.326,0,0,1,748.081,455.667Z" transform="translate(-440.779 -298.562)" fill="#f0f0f0"/>
  <path id="Path_2777" data-name="Path 2777" d="M748.081,498.574H667.548a5.327,5.327,0,0,1-5.32-5.32v-2.648a5.327,5.327,0,0,1,5.32-5.32h80.533a5.326,5.326,0,0,1,5.32,5.32v2.648A5.326,5.326,0,0,1,748.081,498.574Z" transform="translate(-440.779 -318.641)" fill="#f0f0f0"/>
  <path id="Path_2778" data-name="Path 2778" d="M755.419,445.6H674.886a5.593,5.593,0,0,1-5.586-5.586v-2.648a5.593,5.593,0,0,1,5.586-5.586h80.533a5.593,5.593,0,0,1,5.586,5.586v2.648a5.593,5.593,0,0,1-5.586,5.586Zm-80.533-12.757a4.528,4.528,0,0,0-4.522,4.522v2.648a4.527,4.527,0,0,0,4.522,4.522h80.533a4.527,4.527,0,0,0,4.522-4.522v-2.648a4.527,4.527,0,0,0-4.522-4.522Z" transform="translate(-444.089 -293.603)" fill="#3f3d56"/>
  <path id="Path_2779" data-name="Path 2779" d="M755.419,488.51H674.886a5.593,5.593,0,0,1-5.586-5.586v-2.648a5.593,5.593,0,0,1,5.586-5.586h80.533a5.593,5.593,0,0,1,5.586,5.586v2.648a5.593,5.593,0,0,1-5.586,5.586Zm-80.533-12.757a4.527,4.527,0,0,0-4.522,4.522v2.648a4.527,4.527,0,0,0,4.522,4.522h80.533a4.527,4.527,0,0,0,4.522-4.522v-2.648a4.527,4.527,0,0,0-4.522-4.522Z" transform="translate(-444.089 -313.682)" fill="#3f3d56"/>
  <path id="Path_2780" data-name="Path 2780" d="M816.383,220.716V272a55.087,55.087,0,0,1-69.1-53.243q0-2.256.181-4.465H777.7a8.832,8.832,0,0,0,8.185-12.173h11.9A18.6,18.6,0,0,1,816.383,220.716Z" transform="translate(-480.581 -186.129)" fill="#f0f0f0"/>
  <path id="Path_2781" data-name="Path 2781" d="M681.322,673.13c0,1.081-.04,2.149-.128,3.2H653.626a18.6,18.6,0,0,1-18.6-18.6V632.516a41.006,41.006,0,0,1,46.294,40.614Z" transform="translate(-428.05 -387.379)" fill="#2f77b6"/>
  <path id="Path_2782" data-name="Path 2782" d="M296.127,566.253a3.2,3.2,0,0,0,4.209-1.632l24.835-56.286a7.118,7.118,0,0,0-9.086-9.511h0a7.023,7.023,0,0,0-3.591,3.075,7.259,7.259,0,0,0-.348.688l-24.835,56.286a3.192,3.192,0,0,0,1.632,4.209Z" transform="translate(-265.204 -324.752)" fill="#2f77b6"/>
  <path id="Path_2783" data-name="Path 2783" d="M335.189,530.465l-24.565-5.459,6.08-16.084a17,17,0,0,1,18.248-12.571l.237.026Z" transform="translate(-276.241 -323.774)" fill="#2f2e41"/>
  <path id="Path_2784" data-name="Path 2784" d="M424.637,566.59a3.739,3.739,0,0,1-3.411-2.222L396.39,508.081a7.651,7.651,0,0,1,13.625-6.915h0a7.775,7.775,0,0,1,.374.739l24.835,56.286a3.724,3.724,0,0,1-1.9,4.911l-7.428,3.277,0-.008A3.693,3.693,0,0,1,424.637,566.59Z" transform="translate(-316.072 -324.283)" fill="#2f77b6"/>
  <path id="Path_2785" data-name="Path 2785" d="M382.678,591.169a3.2,3.2,0,0,0-3.192,3.192v65.448A3.2,3.2,0,0,0,382.678,663h7.853a3.2,3.2,0,0,0,3.192-3.192V594.361a3.2,3.2,0,0,0-3.192-3.192Z" transform="translate(-308.466 -368.191)" fill="#2f77b6"/>
  <path id="Path_2786" data-name="Path 2786" d="M353.485,591.169a3.2,3.2,0,0,0-3.192,3.192v65.448A3.2,3.2,0,0,0,353.485,663h7.853a3.2,3.2,0,0,0,3.192-3.192V594.361a3.2,3.2,0,0,0-3.192-3.192Z" transform="translate(-294.805 -368.191)" fill="#2f77b6"/>
  <circle id="Ellipse_111" data-name="Ellipse 111" cx="27.134" cy="27.134" r="27.134" transform="translate(43.004 100.142)" fill="#2f77b6"/>
  <path id="Path_2787" data-name="Path 2787" d="M394.774,416.767c1.759-.049,3.948-.11,5.634-1.342a4.327,4.327,0,0,0,1.7-3.231,2.911,2.911,0,0,0-.99-2.39,3.756,3.756,0,0,0-3.553-.512L399,398.8l-1.054-.144-1.688,12.338.88-.4c1.021-.468,2.422-.706,3.292.029a1.87,1.87,0,0,1,.613,1.54,3.27,3.27,0,0,1-1.267,2.409c-1.312.959-3.057,1.082-5.036,1.138Z" transform="translate(-315.607 -278.1)" fill="#2f2e41"/>
  <rect id="Rectangle_2767" data-name="Rectangle 2767" width="5.731" height="1.064" transform="translate(88.611 121.602)" fill="#2f2e41"/>
  <rect id="Rectangle_2768" data-name="Rectangle 2768" width="5.731" height="1.064" transform="translate(70.521 121.602)" fill="#2f2e41"/>
  <path id="Path_2788" data-name="Path 2788" d="M381.477,557.37l-9.766-71.293a3.192,3.192,0,0,0-3.163-2.759h-7.372a3.206,3.206,0,0,0,.048-.532v-2.66a3.192,3.192,0,0,0-3.192-3.192h-6.385a3.192,3.192,0,0,0-3.192,3.192v2.66a3.212,3.212,0,0,0,.048.532h-7.372a3.192,3.192,0,0,0-3.163,2.759L328.2,557.37A3.192,3.192,0,0,0,331.366,561h46.949a3.192,3.192,0,0,0,3.163-3.625Z" transform="translate(-284.454 -314.733)" fill="#2f2e41"/>
  <path id="Path_2789" data-name="Path 2789" d="M399.8,530.466V496.377l.237-.026a17,17,0,0,1,18.257,12.6l6.071,16.057Z" transform="translate(-317.97 -323.774)" fill="#2f2e41"/>
  <path id="Path_2790" data-name="Path 2790" d="M344.135,405.376l-18.768-7.285c-3.069-1.191-6.155-2.346-9.208-3.578a10.5,10.5,0,0,1-3.544-2.089,6.964,6.964,0,0,1-1.767-3.419,35.223,35.223,0,0,1-.487-8.567,65.284,65.284,0,0,1,.756-9.173,44.312,44.312,0,0,1,5.666-16.164c5.263-8.636,14.332-15.133,24.763-14.615a21.205,21.205,0,0,1,13.274,5.275,8.385,8.385,0,0,0,1.253,1.214,1.738,1.738,0,0,0,1,.067q.657-.042,1.315-.064a27.147,27.147,0,0,1,4.557.191,14.429,14.429,0,0,1,7.518,3.122,9.168,9.168,0,0,1,3.4,6.14,7.268,7.268,0,0,1-2.455,5.933c-2.239,1.887-5.434,1.224-8.12,1.081l-9.839-.521-4.985-.264c-1.026-.054-1.023,1.542,0,1.6l13.25.7a57.918,57.918,0,0,0,6.455.262,7.222,7.222,0,0,0,4.434-1.784,8.846,8.846,0,0,0,2.68-8.3,11.866,11.866,0,0,0-5.962-7.574c-3.876-2.187-8.506-2.4-12.844-2.073l.564.234c-4.907-5.266-12.422-7.49-19.478-6.711-7.45.822-14.076,4.978-18.836,10.661-5.308,6.336-8.2,14.237-9.325,22.361a74.4,74.4,0,0,0-.576,13.237,16.682,16.682,0,0,0,.985,5.72,8.188,8.188,0,0,0,3.844,4.121,55,55,0,0,0,6.1,2.506l6.914,2.684,13.582,5.272,3.457,1.342C344.669,407.287,345.084,405.745,344.135,405.376Z" transform="translate(-275.364 -250.12)" fill="#2f2e41"/>
  <path id="Path_2791" data-name="Path 2791" d="M312.542,347.427a8.247,8.247,0,1,1,8.247-8.247,8.247,8.247,0,0,1-8.247,8.247Zm0-14.9a6.65,6.65,0,1,0,6.65,6.65A6.65,6.65,0,0,0,312.542,332.53Z" transform="translate(-273.28 -246.41)" fill="#2f2e41"/>
  <rect id="Rectangle_2769" data-name="Rectangle 2769" width="22.471" height="22.471" transform="matrix(0.794, 0.608, -0.608, 0.794, 159.266, 138.469)" fill="#f0f0f0"/>
  <path id="Path_2792" data-name="Path 2792" d="M362.684,202.322a18.062,18.062,0,0,1,14.513,7.29l10.423-13.627-31.273-23.918-23.918,31.273,13.478,10.309A18.091,18.091,0,0,1,362.684,202.322Z" transform="translate(-286.445 -172.066)" fill="#f0f0f0"/>
  <path id="Path_2793" data-name="Path 2793" d="M622.15,727H246.532a.532.532,0,1,1,0-1.064H622.15a.532.532,0,1,1,0,1.064Z" transform="translate(-246 -431.256)" fill="#3f3d56"/>
  <path id="Path_2794" data-name="Path 2794" d="M742.379,550.314H704.146a5.326,5.326,0,0,1-5.32-5.32v-2.648a5.327,5.327,0,0,1,5.32-5.32h38.233a5.326,5.326,0,0,1,5.32,5.32v2.648a5.326,5.326,0,0,1-5.32,5.32Z" transform="translate(-457.905 -342.854)" fill="#2f77b6"/>
  <path id="Path_2795" data-name="Path 2795" d="M749.717,540.251H711.484a5.593,5.593,0,0,1-5.586-5.587v-2.648a5.593,5.593,0,0,1,5.586-5.586h38.233a5.593,5.593,0,0,1,5.586,5.586v2.648A5.593,5.593,0,0,1,749.717,540.251Zm-38.233-12.757a4.527,4.527,0,0,0-4.522,4.522v2.648a4.527,4.527,0,0,0,4.522,4.522h38.233a4.527,4.527,0,0,0,4.522-4.522v-2.648a4.527,4.527,0,0,0-4.522-4.522Z" transform="translate(-461.215 -337.895)" fill="#3f3d56"/>
</svg>
