<svg xmlns="http://www.w3.org/2000/svg" xmlns:xlink="http://www.w3.org/1999/xlink" width="108.273" height="50.156" viewBox="0 0 108.273 50.156">
  <defs>
    <linearGradient id="linear-gradient" x1="0.017" y1="0.5" x2="1" y2="0.5" gradientUnits="objectBoundingBox">
      <stop offset="0" stop-color="#f3fafd"/>
      <stop offset="0.153" stop-color="#e8f6fd"/>
      <stop offset="0.512" stop-color="#fff"/>
      <stop offset="0.867" stop-color="#e8f6fd"/>
      <stop offset="1" stop-color="#f3fafd"/>
    </linearGradient>
  </defs>
  <g id="Group_28" data-name="Group 28" transform="translate(-40.351 -297.346)">
    <g id="Group_4" data-name="Group 4" transform="translate(92.441 298.124)">
      <g id="Group_3" data-name="Group 3" transform="translate(0 0)">
        <path id="Path_2" data-name="Path 2" d="M332.71,338.875a2.8,2.8,0,0,1-2.493-1.525l-8.624-16.887-9.275,16.957a2.8,2.8,0,0,1-2.454,1.455h-.021a2.8,2.8,0,0,1-2.453-1.49l-11.9-22.535a2.8,2.8,0,0,1,4.946-2.612l9.473,17.935,9.317-17.034a2.8,2.8,0,0,1,2.453-1.455h.04a2.8,2.8,0,0,1,2.451,1.525l11.03,21.6a2.8,2.8,0,0,1-2.488,4.069Z" transform="translate(-295.164 -310.746)" fill="#43afe9"/>
        <path id="Path_3" data-name="Path 3" d="M344.077,338.962a2.228,2.228,0,0,1-1.408-.5l-7.741-6.278a2.237,2.237,0,0,1,.084-3.54l8.865-6.522v-6.141H323.753c-.786-1.362-1.926-4.475-3.356-4.475h25.717a2.237,2.237,0,0,1,2.237,2.237v9.51a2.237,2.237,0,0,1-.912,1.8L340,330.533l5.492,4.454a2.237,2.237,0,0,1-1.411,3.975Z" transform="translate(-292.168 -310.655)" fill="#2f77b6"/>
        <circle id="Ellipse_6" data-name="Ellipse 6" cx="2.777" cy="2.777" r="2.777" transform="translate(23.4 17.049)" fill="#2f77b6"/>
      </g>
    </g>
    <g id="Group_26" data-name="Group 26" transform="translate(40.351 297.346)">
      <g id="Group_27" data-name="Group 27" transform="translate(0 0)">
        <g id="noun-human-2428014" transform="translate(4.162)">
          <path id="Path_7" data-name="Path 7" d="M173.716,38.615a5.861,5.861,0,1,1,4.145-1.717A5.863,5.863,0,0,1,173.716,38.615Zm19.012-.571a3.245,3.245,0,0,0-4.11-1.653l-7.884,3.25h0a11.508,11.508,0,0,1-3.928.694h-6.181a11.508,11.508,0,0,1-3.928-.694l-7.856-3.24a3.245,3.245,0,0,0-4.11,1.653,3.124,3.124,0,0,0,1.8,4.159l7.6,3.145a3.141,3.141,0,0,1,2.066,2.953v5.669a3.143,3.143,0,0,1-.193,1.1l-7.162,14.61a3.239,3.239,0,0,0,1.653,4.109,3.123,3.123,0,0,0,4.159-1.8l6.115-11.789a3.139,3.139,0,0,1,5.895,0l6.093,11.619a3.245,3.245,0,0,0,3.906,2.082,3.118,3.118,0,0,0,2.016-4.06l-7.25-14.8a3.141,3.141,0,0,1-.193-1.1V48.314a3.141,3.141,0,0,1,2.066-2.953l7.625-3.156a3.124,3.124,0,0,0,1.8-4.159Z" transform="translate(-154.481 -26.892)" fill="#2f77b6"/>
        </g>
        <g id="Group_15" data-name="Group 15" transform="translate(1.613 18.965)">
          <rect id="Rectangle_13" data-name="Rectangle 13" width="43.597" height="15.653" transform="translate(0 0)" fill="url(#linear-gradient)"/>
          <path id="Path_4" data-name="Path 4" d="M345.974,113.355l-.132,1.37a8.01,8.01,0,0,1-2.732,1.218c-1.005.059-1.1-.441-1.058-.854s0-1.182-.573-1.192-1.094.611-1.163,1.4,0,2.121.928,2.5a8.6,8.6,0,0,0,3.2,0s1.275-.376,1.4.139-.69.872-.69.872a12.394,12.394,0,0,1-3.674.756c-1.544-.036-.718-.659-.668-1s-.052-.635-.873-.624-.941,1.055-.883,1.469a2.109,2.109,0,0,0,1.6,1.771,20.043,20.043,0,0,0,3.8-.213s1.542-.326,1.527.213-.147,1.022-.822,1.1-2.679.669-3.3.492-1.461-.736-1.333-1.057-1.163-.374-1.156.14a3.031,3.031,0,0,0,1.288,2.293c.9.486,4.845.663,5.19.245s0,1.893,0,1.893-.011.358-.69-.2-3.7-.49-4.342.2-.514,2.055,0,2.176,1.046.344,1.242.127-.13-1.522.732-1.274,2.858,1.18,3.8,1.6,3.529-.949,3.529-.949,1.742-1.566,1.742-.655.309,1.4.942,1.274a1.134,1.134,0,0,0,.752-1.75,2.6,2.6,0,0,0-2.86-1.087c-1.431.3-2.535,1.251-2.781,1.087s-.321-2.635,0-2.446a5.725,5.725,0,0,0,3.738.452c1.791-.424,2.471-1.234,2.694-2.228s-.349-1.324-1.081-.9-.414,1.1-1.4,1.057-3.687-.087-3.947-.492c.032-.539,0-1.317,0-1.317a9.992,9.992,0,0,0,3.324.521,4.738,4.738,0,0,0,3.108-.976,2.543,2.543,0,0,0,.368-2.437c-.125-.191-1.168-.593-1.449.24s-.229,1.179-1.133,1.094-3.242-.6-3.242-.6l-.976-.5v-.793a7.348,7.348,0,0,0,3.738.418c1.607-.415,2.059-1.531,1.9-2.288s-.306-1.709-.752-1.758a.807.807,0,0,0-.942.614c-.056.422.341,1.326-.21,1.432a10.074,10.074,0,0,1-2.3-.287l-1.44-.8v-1.505Z" transform="translate(-325.157 -113.355)" fill="rgba(58,134,255,0.25)"/>
        </g>
        <rect id="Rectangle_18" data-name="Rectangle 18" width="46.988" height="1.695" rx="0.848" transform="translate(0 17.996)" fill="#43afe9"/>
        <rect id="Rectangle_19" data-name="Rectangle 19" width="46.988" height="1.695" rx="0.848" transform="translate(0 33.497)" fill="#43afe9"/>
      </g>
    </g>
    <text id="Clinic" transform="translate(91.1 343.503)" fill="#2f77b6" font-size="15" font-family="SegoeUI, Segoe UI"><tspan x="0" y="0">CLINIC</tspan></text>
  </g>
</svg>
