<svg xmlns="http://www.w3.org/2000/svg" xmlns:xlink="http://www.w3.org/1999/xlink" width="51.252" height="59.133" viewBox="0 0 51.252 59.133">
  <defs>
    <linearGradient id="linear-gradient" x1="0.5" y1="1" x2="0.5" gradientUnits="objectBoundingBox">
      <stop offset="0" stop-color="#a1a1a1"/>
      <stop offset="0.262" stop-color="#a4a4a4"/>
      <stop offset="0.5" stop-color="#afafaf"/>
      <stop offset="0.727" stop-color="#c1c1c1"/>
      <stop offset="0.948" stop-color="#dbdbdb"/>
      <stop offset="1" stop-color="#e3e3e3"/>
    </linearGradient>
  </defs>
  <g id="Group_23" data-name="Group 23" transform="translate(-298.842 -46.212)">
    <g id="Group_12" data-name="Group 12" transform="translate(299.344 80.74)">
      <path id="Path_268" data-name="Path 268" d="M349.095,115.17c-.574-3.769-1.051-5.194-6.278-5.8-1.979-.229-9.2-.784-11.206-1.928s-1.683-6.868-1.683-6.868H318.988s.318,5.723-1.683,6.868-9.227,1.7-11.206,1.928c-5.227.6-5.7,2.03-6.277,5.8a93.179,93.179,0,0,0-.478,9.509h50.229A93.258,93.258,0,0,0,349.095,115.17Z" transform="translate(-299.344 -100.575)" fill="#fff" stroke="#3a9cd8" stroke-width="1"/>
    </g>
    <g id="Group_13" data-name="Group 13" transform="translate(310.204 48.162)">
      <path id="Path_269" data-name="Path 269" d="M343.013,67.57h-.243c.1-.838.208-1.661.309-2.441.528-4.039,1.712-15.847-12.383-15.847S317.787,61.09,318.314,65.129c.1.781.205,1.6.309,2.441h-.243c-2.146-1.588-2.325,2.558-1.432,3.973a8.607,8.607,0,0,1,1.2,2.59c.33.954.878,1.078,1.335.976.059.563.108,1.055.142,1.447.2,2.178,5.433,6.54,6.62,7.908,1.113,1.277,2.967.781,3.561.753s.886-.044.886-.044.285.016.884.044,2.452.525,3.56-.753c1.188-1.367,6.424-5.73,6.621-7.908.036-.393.084-.884.144-1.449.455.1,1-.02,1.335-.974a8.574,8.574,0,0,1,1.2-2.59C345.338,70.129,345.157,65.983,343.013,67.57Z" transform="translate(-316.442 -49.282)" fill="#fff" stroke="#3a9cd8" stroke-width="1"/>
    </g>
    <g id="Group_15" data-name="Group 15" transform="translate(311 46.212)">
      <path id="Path_273" data-name="Path 273" d="M343.363,52.328c-3.4-6.675-12.209-6.1-12.209-6.1s-8.808-.572-12.21,6.1c-2.391,4.693-.773,9.418.137,14.122l.237-1.338s.5-5.438,3.862-7.727,3,0,7.974,0,4.611-2.289,7.976,0,3.863,7.727,3.863,7.727l.235,1.338C344.136,61.746,345.752,57.021,343.363,52.328Z" transform="translate(-317.696 -46.212)" fill="#3a9cd8"/>
    </g>
    <g id="Group_16" data-name="Group 16" transform="translate(299.344 85.955)">
      <path id="Path_276" data-name="Path 276" d="M349.1,118.166c-.574-3.769-1.051-5.194-6.278-5.8-1.979-.229-9.2-.784-11.206-1.928a2.907,2.907,0,0,1-1.138-1.649l-6,1.246-6.024-1.25h0a2.916,2.916,0,0,1-1.14,1.653c-2,1.145-9.226,1.7-11.2,1.928-5.228.6-5.706,2.03-6.279,5.8a93.365,93.365,0,0,0-.478,9.509h50.229A93.384,93.384,0,0,0,349.1,118.166Z" transform="translate(-299.344 -108.786)" fill="#3a9cd8"/>
    </g>
    <path id="Path_279" data-name="Path 279" d="M345.308,110.136l-2.264,4.68-3.855-4.347-.288.059,4.155,4.684,2.359-4.877S345.371,110.257,345.308,110.136Z" transform="translate(-14.433 -23.323)" fill="#d1d1d1" style="mix-blend-mode: multiply;isolation: isolate"/>
    <path id="Path_280" data-name="Path 280" d="M334.854,110.477l-3.859,4.349v0l0,0-2.249-4.655c-.055.107-.095.178-.095.178L331,115.221v0h0l4.156-4.683Z" transform="translate(-10.692 -23.335)" fill="#d1d1d1" style="mix-blend-mode: multiply;isolation: isolate"/>
    <path id="Path_281" data-name="Path 281" d="M338.1,114.109h0l1.257-1.28-1.841-2.075-1.842,2.075,1.257,1.28h0L335.1,126.078l.919,2.315H337.5v-.062l.021.062h1.482l.921-2.315Z" transform="translate(-13.046 -23.549)" fill="#fff"/>
    <path id="Path_282" data-name="Path 282" d="M343.2,80.408c-3.833,3.74-10.842,3.383-10.842,3.383s-7.009.357-10.843-3.383c0,0-1.946,7.1,1.683,11.225s4.072,4.918,9.16,4.9c5.087.022,5.519-.753,9.16-4.9S343.2,80.408,343.2,80.408Z" transform="translate(-7.899 -12.477)" fill="#fff" stroke="#3a9cd8" stroke-width="1"/>
    <path id="Path_284" data-name="Path 284" d="M324.458,128.814l-8.112-16.8h0c-2.746.88-8.512,1.331-10.245,1.532-5.228.6-5.706,2.03-6.279,5.8a93.365,93.365,0,0,0-.478,9.509h25.114Z" transform="translate(0 -24.008)" fill="#fff" stroke="#3a9cd8" stroke-width="1"/>
    <path id="Path_285" data-name="Path 285" d="M338.917,128.814l8.111-16.8h0c2.746.88,8.512,1.331,10.245,1.532,5.228.6,5.706,2.03,6.28,5.8a93.362,93.362,0,0,1,.478,9.509H338.917Z" transform="translate(-14.438 -24.008)" fill="#fff" stroke="#3a9cd8" stroke-width="1"/>
    <path id="Path_286" data-name="Path 286" d="M299.346,137.9c0,.246,0,.4,0,.4h25.114v-.038l-.174-.361Z" transform="translate(0 -33.452)" fill="#d9e2e4" style="mix-blend-mode: multiply;isolation: isolate"/>
    <path id="Path_287" data-name="Path 287" d="M339.09,137.9l-.173.361v.038h25.114s0-.152,0-.4Z" transform="translate(-14.438 -33.452)" fill="#d9e2e4" style="mix-blend-mode: multiply;isolation: isolate"/>
    <path id="Path_288" data-name="Path 288" d="M299.822,119.695c.574-3.77,1.053-4.955,6.28-5.56,1.734-.2,7.805-.607,10.551-1.486l-.307-.636h0c-2.746.88-8.512,1.331-10.245,1.532-5.228.6-5.706,2.03-6.279,5.8a93.365,93.365,0,0,0-.478,9.509h0A87.032,87.032,0,0,1,299.822,119.695Z" transform="translate(0 -24.008)" fill="#666" style="mix-blend-mode: screen;isolation: isolate"/>
    <path id="Path_289" data-name="Path 289" d="M351.24,112.6c2.745.88,8.8,1.368,10.529,1.569,5.228.6,5.707,1.754,6.281,5.523a87.229,87.229,0,0,1,.476,9.158h0a93.374,93.374,0,0,0-.478-9.509c-.574-3.769-1.051-5.194-6.28-5.8-1.733-.2-7.5-.652-10.245-1.532h0Z" transform="translate(-18.935 -24.008)" fill="#666" style="mix-blend-mode: screen;isolation: isolate"/>
    <g id="Group_19" data-name="Group 19" transform="translate(311.838 66.049)">
      <path id="Path_290" data-name="Path 290" d="M331.646,83.017c-9.674,0-12.525-4.967-12.63-5.172l.546-.279c.023.046,2.817,4.838,12.084,4.838s12.039-4.912,12.063-4.959l.548.279C344.151,77.927,341.319,83.017,331.646,83.017Z" transform="translate(-319.015 -77.444)" stroke="#3a9cd8" stroke-width="1" fill="url(#linear-gradient)"/>
    </g>
    <g id="Group_17" data-name="Group 17" transform="translate(324.468 85.955)">
      <path id="Path_277" data-name="Path 277" d="M344.925,108.786l-6.024,1.25,4.155,4.684,2.359-4.877A8.216,8.216,0,0,1,344.925,108.786Z" transform="translate(-338.901 -108.786)" fill="#fff" stroke="#3a9cd8" stroke-width="1"/>
    </g>
    <g id="Group_18" data-name="Group 18" transform="translate(317.957 85.955)">
      <path id="Path_278" data-name="Path 278" d="M329.14,108.786h0a8.317,8.317,0,0,1-.488,1.057L331,114.716v0h0l4.156-4.683-6.021-1.25Z" transform="translate(-328.649 -108.786)" fill="#fff" stroke="#3a9cd8" stroke-width="1"/>
    </g>
    <g id="Group_5193" data-name="Group 5193" transform="translate(333.825 95.4)">
      <line id="Line_4" data-name="Line 4" y2="6.333" transform="translate(3.167)" fill="none" stroke="#3a9cd8" stroke-linecap="round" stroke-width="1"/>
      <line id="Line_5" data-name="Line 5" y2="6.333" transform="translate(6.333 3.167) rotate(90)" fill="none" stroke="#3a9cd8" stroke-linecap="round" stroke-width="1"/>
    </g>
  </g>
</svg>
